<?xml version="1.0" encoding="iso-8859-1"?>
<!-- Uploaded to: SVG Repo, www.svgrepo.com, Generator: SVG Repo Mixer Tools -->
<svg fill="#000000" version="1.1" id="Layer_1" xmlns="http://www.w3.org/2000/svg" xmlns:xlink="http://www.w3.org/1999/xlink" 
	 viewBox="0 0 496 496" xml:space="preserve">
<g>
	<g>
		<g>
			<path d="M317.376,149.936c6.848-6.848,10.624-15.96,10.624-25.656C328,104.272,311.728,88,291.72,88
				c-9.696,0-18.8,3.776-25.656,10.624L248,116.688l-18.064-18.064C223.088,91.776,213.976,88,204.28,88
				C184.272,88,168,104.272,168,124.28c0,9.696,3.776,18.808,10.624,25.656L248,219.312L317.376,149.936z M184,124.28
				c0-11.176,9.104-20.28,20.28-20.28c5.424,0,10.512,2.112,14.344,5.936L248,139.312l29.376-29.376
				c3.824-3.824,8.92-5.936,14.344-5.936c11.176,0,20.28,9.104,20.28,20.28c0,5.424-2.112,10.512-5.936,14.344L248,196.688
				l-58.064-58.064C186.112,134.8,184,129.704,184,124.28z"/>
			<path d="M472,280H24c-13.232,0-24,10.768-24,24v120c0,13.232,10.768,24,24,24h32v24c0,13.232,10.768,24,24,24h8
				c13.232,0,24-10.768,24-24v-24h272v24c0,13.232,10.768,24,24,24h8c13.232,0,24-10.768,24-24v-24h32c13.232,0,24-10.768,24-24V304
				C496,290.768,485.232,280,472,280z M96,472c0,4.416-3.584,8-8,8h-8c-4.416,0-8-3.584-8-8v-24h24V472z M424,472
				c0,4.416-3.584,8-8,8h-8c-4.416,0-8-3.584-8-8v-24h24V472z M480,424c0,4.416-3.584,8-8,8h-32h-56H112H56H24c-4.416,0-8-3.584-8-8
				V304c0-4.416,3.584-8,8-8h448c4.416,0,8,3.584,8,8V424z"/>
			<path d="M48,160c0-13.232,10.768-24,24-24h68.632l1.88-5.328C158.328,86.008,200.72,56,248,56
				c47.28,0,89.672,30.008,105.48,74.672l1.888,5.328H424c13.232,0,24,10.768,24,24v104h16V160c0-19.312-13.768-35.472-32-39.192
				v-74.28c9.288-3.312,16-12.112,16-22.528c0-13.232-10.768-24-24-24s-24,10.768-24,24c0,10.416,6.704,19.216,16,22.528V120
				h-49.456C347.072,71.92,300.144,40,248,40c-52.144,0-99.072,31.92-118.544,80H72V46.528C81.288,43.216,88,34.416,88,24
				C88,10.768,77.232,0,64,0S40,10.768,40,24c0,10.416,6.704,19.216,16,22.528v76.864C41.896,129.584,32,143.64,32,160v104h16V160z
				 M424,16c4.416,0,8,3.584,8,8s-3.584,8-8,8c-4.416,0-8-3.584-8-8S419.584,16,424,16z M64,16c4.416,0,8,3.584,8,8s-3.584,8-8,8
				s-8-3.584-8-8S59.584,16,64,16z"/>
			<path d="M128,200c-30.872,0-56,25.128-56,56v8h136v-8c0-30.872-25.128-56-56-56H128z M191.192,248H88.808
				c3.72-18.232,19.872-32,39.192-32h24C171.32,216,187.48,229.768,191.192,248z"/>
			<path d="M424,256c0-30.872-25.128-56-56-56h-24c-30.872,0-56,25.128-56,56v8h136V256z M304.808,248
				c3.72-18.232,19.872-32,39.192-32h24c19.32,0,35.48,13.768,39.192,32H304.808z"/>
			<rect x="448" y="400" width="16" height="16"/>
			<rect x="384" y="400" width="48" height="16"/>
		</g>
	</g>
</g>
</svg>