<?xml version="1.0" encoding="iso-8859-1"?>
<!-- Uploaded to: SVG Repo, www.svgrepo.com, Generator: SVG Repo Mixer Tools -->
<!DOCTYPE svg PUBLIC "-//W3C//DTD SVG 1.1//EN" "http://www.w3.org/Graphics/SVG/1.1/DTD/svg11.dtd">
<svg height="800px" width="800px" version="1.1" id="Capa_1" xmlns="http://www.w3.org/2000/svg" xmlns:xlink="http://www.w3.org/1999/xlink" 
	 viewBox="0 0 196.335 196.335" xml:space="preserve">
<path style="fill:#000002;" d="M184.409,186.883h-24.994c-1.381,0-2.5-1.119-2.5-2.5V158.99h-9.496v25.393
	c0,1.381-1.119,2.5-2.5,2.5s-2.5-1.119-2.5-2.5V158.99H129.96c-0.406,0.437-0.82,0.858-1.241,1.267v24.126
	c0,1.381-1.119,2.5-2.5,2.5s-2.5-1.119-2.5-2.5v-20.107c-4.513,3.007-9.373,4.832-13.701,5.939v14.168c0,1.381-1.119,2.5-2.5,2.5
	s-2.5-1.119-2.5-2.5v-13.137c-4.229,0.672-7.322,0.675-8.005,0.657c-0.525,0.027-2.689,0.111-5.695-0.118v12.598
	c0,1.381-1.119,2.5-2.5,2.5s-2.5-1.119-2.5-2.5v-13.218c-3.604-0.627-7.643-1.741-11.343-3.703
	c-0.688-0.365-1.487-0.789-2.358-1.306v18.227c0,1.381-1.119,2.5-2.5,2.5s-2.5-1.119-2.5-2.5v-21.96
	c-1.029-0.97-2.063-2.102-3.062-3.433H53.916v25.393c0,1.381-1.119,2.5-2.5,2.5s-2.5-1.119-2.5-2.5V158.99H39.42v25.393
	c0,1.381-1.119,2.5-2.5,2.5H11.925c-1.381,0-2.5-1.119-2.5-2.5V69.82c0-3.818-3.106-6.925-6.925-6.925c-1.381,0-2.5-1.119-2.5-2.5
	V31.33c0-1.381,1.119-2.5,2.5-2.5h53.787c4.662-11.333,21.802-19.378,41.88-19.378c20.079,0,37.219,8.045,41.881,19.378h53.787
	c1.381,0,2.5,1.119,2.5,2.5v29.065c0,1.381-1.119,2.5-2.5,2.5c-3.819,0-6.926,3.106-6.926,6.925v114.563
	C186.909,185.764,185.79,186.883,184.409,186.883z M161.915,181.883h19.994V69.82c0-5.718,4.046-10.509,9.426-11.661V33.83h-53.061
	c-1.117,0-2.099-0.741-2.404-1.815c-2.852-10.012-19.061-17.563-37.703-17.563s-34.851,7.551-37.702,17.563
	c-0.306,1.074-1.287,1.815-2.404,1.815H5v24.329c5.379,1.152,9.425,5.943,9.425,11.661v112.063H34.42V158.99h-5.675
	c-1.381,0-2.5-1.119-2.5-2.5s1.119-2.5,2.5-2.5h5.675V84.295c0-14.557,11.842-26.399,26.398-26.399h74.698
	c14.557,0,26.398,11.843,26.398,26.399v69.695h5.675c1.381,0,2.5,1.119,2.5,2.5s-1.119,2.5-2.5,2.5h-5.675V181.883z M91.317,166.763
	c3.216,0.271,5.451,0.146,5.5,0.145c0.07-0.004,0.14-0.007,0.21-0.004l0,0c0.095-0.001,3.388,0.048,7.99-0.777v-7.136h-13.7V166.763
	z M72.616,160.119c1.732,1.352,3.383,2.227,4.683,2.916c2.893,1.533,6.076,2.472,9.019,3.042v-7.087H72.616V160.119z
	 M110.018,158.99v5.977c4.037-1.161,8.466-3.016,12.422-5.977H110.018z M147.419,153.99h9.496V84.295
	c0-11.8-9.6-21.399-21.398-21.399H60.818c-11.799,0-21.398,9.6-21.398,21.399v69.695h9.496v-11.472c0-1.381,1.119-2.5,2.5-2.5
	s2.5,1.119,2.5,2.5v11.472h7.609c-1.554-3.201-2.854-7.158-3.664-12.082c-2.876-17.472,5.44-33.812,5.796-34.498
	c0.549-1.06,1.771-1.724,2.916-1.391c1.123,0.323,1.873,1.248,1.809,2.403c0.078,0.367,0.55,2.133,2.902,5.637
	c2.207,3.29,4.792,5.103,6.996,6.101c-1.135-2.57-2.138-5.938-2.138-9.814c0-8.763,9.386-19.464,9.785-19.915
	c0.714-0.805,1.86-1.065,2.851-0.644c0.989,0.421,1.599,1.428,1.514,2.499c-0.006,0.071-0.464,7.689,3.485,9.377
	c2.426,1.036,4.701,1.038,6.404,0.007c1.661-1.006,2.687-2.966,2.886-5.519c0.49-6.287-3.297-13.694-3.335-13.769
	c-0.502-0.971-0.315-2.155,0.46-2.925c0.776-0.77,1.962-0.946,2.928-0.437c0.464,0.246,11.447,6.162,17.743,19.533
	c2.511,5.333,3.549,12.867,3.955,19.153c0.979-3.064,1.72-5.931,2.075-7.491c0.223-0.977,1.006-1.727,1.991-1.905
	c0.99-0.181,1.983,0.248,2.534,1.084c0.592,0.899,14.382,22.246,3.543,42.569c-0.373,0.698-0.765,1.375-1.172,2.025h8.629v-11.472
	c0-1.381,1.119-2.5,2.5-2.5s2.5,1.119,2.5,2.5V153.99z M110.018,153.99h13.701v-11.472c0-1.381,1.119-2.5,2.5-2.5s2.5,1.119,2.5,2.5
	v10.063c0.657-0.929,1.27-1.916,1.831-2.97c6.399-11.998,2.643-24.887-0.47-31.985c-1.292,4.301-3.242,9.786-5.551,13.06
	c-0.641,0.908-1.802,1.285-2.854,0.923c-1.051-0.36-1.737-1.371-1.686-2.48c0.009-0.188,0.822-18.944-3.649-28.443
	c-2.581-5.48-6.1-9.579-9.138-12.401c0.642,2.562,1.068,5.452,0.85,8.257c-0.328,4.203-2.203,7.543-5.28,9.406
	c-3.12,1.889-7.013,2-10.959,0.314c-3.434-1.467-5.086-4.624-5.867-7.607c-2.388,3.567-4.803,8.124-4.803,11.692
	c0,6.927,4.091,11.878,4.132,11.928c0.616,0.733,0.759,1.754,0.368,2.629c-0.392,0.874-1.248,1.448-2.205,1.478
	c-0.388-0.001-9.781,0.188-16.306-9.534c-0.459-0.684-0.862-1.32-1.216-1.912c-2.124,5.878-4.803,15.943-3.121,26.162
	c0.931,5.654,2.543,9.801,4.419,12.895h0.402v-11.472c0-1.381,1.119-2.5,2.5-2.5s2.5,1.119,2.5,2.5v11.472h13.701v-11.472
	c0-1.381,1.119-2.5,2.5-2.5s2.5,1.119,2.5,2.5v11.472h13.7v-11.472c0-1.381,1.119-2.5,2.5-2.5s2.5,1.119,2.5,2.5V153.99z
	 M98.167,49.873c-16.627,0-29.166-6.162-29.166-14.334c0-8.171,12.539-14.333,29.166-14.333c16.628,0,29.167,6.162,29.167,14.333
	C127.334,43.711,114.795,49.873,98.167,49.873z M98.167,26.206c-13.831,0-24.166,4.928-24.166,9.333
	c0,4.406,10.335,9.334,24.166,9.334c13.832,0,24.167-4.928,24.167-9.334C122.334,31.134,111.999,26.206,98.167,26.206z"/>
</svg>